<svg xmlns="http://www.w3.org/2000/svg" viewBox="0 0 420.29 199.99"><defs><style>.cls-1{fill:#fff;}.cls-2{fill:#f58438;}</style></defs><title>Asset 23x</title><g id="Layer_2" data-name="Layer 2"><g id="Layer_1-2" data-name="Layer 1"><path class="cls-1" d="M157.8,15.84H141.25a57.77,57.77,0,0,0-37.85-14A58.38,58.38,0,0,0,45.2,56.44,49.22,49.22,0,0,0,0,105.35v31.32a4,4,0,0,0,4,4,4,4,0,0,0,4-4V105.35A41.23,41.23,0,0,1,45.2,64.51a58.36,58.36,0,0,0,58.2,54.16,57.35,57.35,0,0,0,37.85-14H157.8a4,4,0,0,0,4-4V19.88A4,4,0,0,0,157.8,15.84Zm-4,80.71h-14a4.19,4.19,0,0,0-2.75,1,49.39,49.39,0,0,1-33.57,13,50.37,50.37,0,1,1,0-100.73,49.43,49.43,0,0,1,33.57,13,3.78,3.78,0,0,0,2.75,1.05h14Z"/><path class="cls-1" d="M188.66,104.65H172.34a4,4,0,0,1-4-4V19.9a4,4,0,0,1,4-4h16.32a4,4,0,0,1,4,4v80.72A4,4,0,0,1,188.66,104.65Zm-12.29-8.07h8.26V23.94h-8.26Z"/><path class="cls-2" d="M293.4,6.88,244,56.36h32.29A4.09,4.09,0,0,1,280,58.78a4.26,4.26,0,0,1-.89,4.44l-51.33,51.25H236a4,4,0,1,1,0,8.08H218.09a3.52,3.52,0,0,1-1.53-.33,3.9,3.9,0,0,1-1.29-.89,5.28,5.28,0,0,1-.89-1.21V120a3.29,3.29,0,0,1-.32-1.53V100.59a4.1,4.1,0,0,1,4-4,4.05,4.05,0,0,1,4,4v8.23l44.39-44.39H234.23a4.06,4.06,0,0,1-2.82-6.94L287.75,1.15a4.05,4.05,0,0,1,5.65,0A4,4,0,0,1,293.4,6.88Z"/><path class="cls-1" d="M420.29,104.7V136a4.05,4.05,0,0,1-4,4,4,4,0,0,1-4-4V104.7a41.14,41.14,0,0,0-36.88-40.84V101a4.11,4.11,0,0,1-4,4H320a4.05,4.05,0,0,1-4-4,4,4,0,0,1,4-4h47.22V24.31H320a4,4,0,0,1-4-4,4,4,0,0,1,4-4h51.25a4.05,4.05,0,0,1,4,4V55.71A49.42,49.42,0,0,1,405.92,70,48.9,48.9,0,0,1,420.29,104.7Z"/><path class="cls-1" d="M206,23.94h-4a4,4,0,0,1,0-8.08h4a4,4,0,0,1,0,8.08Z"/><path class="cls-1" d="M225.63,23.94h-4.91a4,4,0,1,1,0-8.08h4.91a4,4,0,0,1,0,8.08Z"/><path class="cls-1" d="M244.38,23.94h-4a4,4,0,1,1,0-8.08h4a4,4,0,0,1,0,8.08Z"/><path class="cls-1" d="M264.56,105.67h-4a4,4,0,1,1,0-8.07h4a4,4,0,1,1,0,8.07Z"/><path class="cls-1" d="M284.2,105.67h-4.91a4,4,0,1,1,0-8.07h4.91a4,4,0,0,1,0,8.07Z"/><path class="cls-1" d="M303,105.67h-4a4,4,0,0,1,0-8.07h4a4,4,0,0,1,0,8.07Z"/><path class="cls-1" d="M29.7,181.21a10.22,10.22,0,0,0-2.08-1.47,9.06,9.06,0,0,0,1.41-1,8.18,8.18,0,0,0,2.79-6.41,9.24,9.24,0,0,0-1.4-5.05,9.66,9.66,0,0,0-3.9-3.46,12.82,12.82,0,0,0-5.87-1.27H3.06v36.83H20a15.27,15.27,0,0,0,6.7-1.37,10.71,10.71,0,0,0,4.48-3.82,10.14,10.14,0,0,0,1.6-5.67A9.42,9.42,0,0,0,29.7,181.21ZM13.2,170h4.55a4.4,4.4,0,0,1,2.74.83,3.61,3.61,0,0,1,0,5.17,4.4,4.4,0,0,1-2.74.83H13.2Zm8.17,20.88a4.61,4.61,0,0,1-3.16,1.06h-5v-8h5a5.26,5.26,0,0,1,2.31.46,3.61,3.61,0,0,1,1.5,1.37,4.14,4.14,0,0,1,.54,2.15A3.75,3.75,0,0,1,21.37,190.86Z"/><path class="cls-1" d="M52.61,200a17.39,17.39,0,0,1-8.48-2,14.31,14.31,0,0,1-5.64-5.51,16,16,0,0,1-2-8.07V162.53H46.82v22.82a5.54,5.54,0,0,0,.78,3,5,5,0,0,0,2.09,1.89,6.55,6.55,0,0,0,2.92.64,6.38,6.38,0,0,0,2.93-.64,4.84,4.84,0,0,0,2-1.87,5.73,5.73,0,0,0,.72-3V162.53h10.4v21.94a15.9,15.9,0,0,1-2,8A14.26,14.26,0,0,1,61.07,198,17.29,17.29,0,0,1,52.61,200Z"/><path class="cls-1" d="M83.91,183.64l.52.81v-.92Zm.52.81v.22h.14Zm-.52-.81.52.81v-.92Zm0,0,.52.81v-.92Z"/><path class="cls-1" d="M94.92,184a11.92,11.92,0,0,0,2-.74,11.32,11.32,0,0,0,4.68-3.88,10.86,10.86,0,0,0,0-11.59,11.1,11.1,0,0,0-4.55-3.88,15.39,15.39,0,0,0-6.73-1.4H74.09v36.83H84.43V184.45l-.52-.81.52-.11v.92l.14.22L94,199.36h11.74Zm-3-7.52a4.57,4.57,0,0,1-3.23,1h-4.3V170h4.3A4.57,4.57,0,0,1,92,171a3.95,3.95,0,0,1,0,5.49Z"/><polygon class="cls-1" points="141.39 162.53 141.39 199.36 133.63 199.36 118.63 180.51 118.63 199.36 108.28 199.36 108.28 162.53 115.52 162.53 131.04 182.03 131.04 162.53 141.39 162.53"/><polygon class="cls-1" points="177.71 162.53 177.71 171.32 166.64 171.32 166.64 199.36 156.29 199.36 156.29 171.32 145.27 171.32 145.27 162.53 177.71 162.53"/><path class="cls-2" d="M205.21,183.72a12.64,12.64,0,0,0,5.19-1.25,9.21,9.21,0,0,0,3.91-3.54,10.16,10.16,0,0,0,1.37-5.33,9.94,9.94,0,0,0-1.37-5.22,9.61,9.61,0,0,0-3.91-3.6,12.7,12.7,0,0,0-6-1.32H191.26v35.9h4.87V183.74h3.16L212,199.36h6.15Zm-9.08-16h8.17a6.49,6.49,0,0,1,4.84,1.71,5.87,5.87,0,0,1,1.68,4.29,5.68,5.68,0,0,1-1.71,4.35,6.83,6.83,0,0,1-4.86,1.6h-8.12Z"/><polygon class="cls-2" points="247.03 194.92 247.03 199.36 223.13 199.36 223.13 163.46 246.77 163.46 246.77 167.91 227.99 167.91 227.99 178.88 245.32 178.88 245.32 183.12 227.99 183.12 227.99 194.92 247.03 194.92"/><path class="cls-2" d="M262.7,199.89a15.51,15.51,0,0,1-7.24-1.56,16.26,16.26,0,0,1-5.33-4.5l3.31-3.31a11.9,11.9,0,0,0,3.93,3.6,11.37,11.37,0,0,0,5.49,1.21,8.65,8.65,0,0,0,5.15-1.39,4.49,4.49,0,0,0,1.94-3.83,5.24,5.24,0,0,0-.94-3.26,7.1,7.1,0,0,0-2.5-2,28.67,28.67,0,0,0-3.44-1.44c-1.25-.43-2.49-.9-3.73-1.4a16.21,16.21,0,0,1-3.41-1.86,8.15,8.15,0,0,1-2.51-2.93,9.62,9.62,0,0,1-1-4.55,9,9,0,0,1,1.47-5.2,9.66,9.66,0,0,1,4-3.31,13.89,13.89,0,0,1,5.77-1.16,14.06,14.06,0,0,1,6.31,1.37,13,13,0,0,1,4.55,3.59l-3.31,3.31a11.44,11.44,0,0,0-3.44-2.79,9.2,9.2,0,0,0-4.22-.93,7.52,7.52,0,0,0-4.6,1.27,4.14,4.14,0,0,0-1.71,3.54,4.3,4.3,0,0,0,1,2.92,7.82,7.82,0,0,0,2.51,1.89,27,27,0,0,0,3.44,1.42c1.26.44,2.51.91,3.75,1.43a14.91,14.91,0,0,1,3.41,2A8.76,8.76,0,0,1,273.9,185a10.42,10.42,0,0,1,1,4.74,9.08,9.08,0,0,1-3.28,7.44C269.38,199,266.43,199.89,262.7,199.89Z"/><path class="cls-2" d="M281.43,199.37V163.46h4.86v35.91Z"/><path class="cls-2" d="M304,199.89a15.51,15.51,0,0,1-7.24-1.56,16.16,16.16,0,0,1-5.33-4.5l3.31-3.31a11.9,11.9,0,0,0,3.93,3.6,11.3,11.3,0,0,0,5.48,1.21,8.63,8.63,0,0,0,5.15-1.39,4.49,4.49,0,0,0,1.94-3.83,5.3,5.3,0,0,0-.93-3.26,7.13,7.13,0,0,0-2.51-2,28,28,0,0,0-3.44-1.44c-1.24-.43-2.48-.9-3.72-1.4a16.29,16.29,0,0,1-3.42-1.86,8.35,8.35,0,0,1-2.51-2.93,9.62,9.62,0,0,1-1-4.55,9,9,0,0,1,1.48-5.2,9.63,9.63,0,0,1,4-3.31,15.08,15.08,0,0,1,12.08.21,13,13,0,0,1,4.56,3.59l-3.31,3.31a11.44,11.44,0,0,0-3.44-2.79,9.23,9.23,0,0,0-4.22-.93,7.5,7.5,0,0,0-4.6,1.27,4.14,4.14,0,0,0-1.71,3.54,4.3,4.3,0,0,0,1,2.92,7.77,7.77,0,0,0,2.5,1.89,27.62,27.62,0,0,0,3.44,1.42c1.26.44,2.51.91,3.76,1.43a14.91,14.91,0,0,1,3.41,2,9,9,0,0,1,2.51,3.08,10.42,10.42,0,0,1,1,4.74,9.08,9.08,0,0,1-3.29,7.44Q309.63,199.89,304,199.89Z"/><polygon class="cls-2" points="347.65 163.46 347.65 167.91 335.5 167.91 335.5 199.36 330.63 199.36 330.63 167.91 318.42 167.91 318.42 163.46 347.65 163.46"/><path class="cls-2" d="M367.2,199.89a17.85,17.85,0,0,1-12.93-5.41,18.45,18.45,0,0,1-3.85-5.92,19.63,19.63,0,0,1,0-14.41,18.23,18.23,0,0,1,3.83-5.87,17.3,17.3,0,0,1,5.74-3.94,18.88,18.88,0,0,1,14.22,0,17.53,17.53,0,0,1,5.77,3.94,18.35,18.35,0,0,1,3.88,5.89,18.77,18.77,0,0,1,1.4,7.25A18.69,18.69,0,0,1,380,194.5a17.76,17.76,0,0,1-5.74,4A17.59,17.59,0,0,1,367.2,199.89Zm-.1-4.66a12.5,12.5,0,0,0,11.43-6.7,14.73,14.73,0,0,0,1.71-7.17,15.12,15.12,0,0,0-1-5.51,13.66,13.66,0,0,0-2.74-4.37,12.28,12.28,0,0,0-4.14-2.87,13.47,13.47,0,0,0-5.28-1,12.87,12.87,0,0,0-6.75,1.76,12.48,12.48,0,0,0-4.6,4.87,14.59,14.59,0,0,0-1.69,7.13,15.78,15.78,0,0,0,1,5.57,13,13,0,0,0,2.69,4.39,12.31,12.31,0,0,0,4.14,2.87A13.12,13.12,0,0,0,367.1,195.23Z"/><path class="cls-2" d="M405.89,183.72a12.64,12.64,0,0,0,5.19-1.25,9.27,9.27,0,0,0,3.91-3.54,10.16,10.16,0,0,0,1.37-5.33,9.94,9.94,0,0,0-1.37-5.22,9.67,9.67,0,0,0-3.91-3.6,12.7,12.7,0,0,0-5.95-1.32H391.94v35.9h4.86V183.74H400l12.67,15.62h6.16Zm-9.09-16H405a6.48,6.48,0,0,1,4.84,1.71,5.87,5.87,0,0,1,1.68,4.29,5.71,5.71,0,0,1-1.7,4.35,6.84,6.84,0,0,1-4.87,1.6H396.8Z"/></g></g></svg>